<svg id="Layer_1" data-name="Layer 1" xmlns="http://www.w3.org/2000/svg" viewBox="0 0 32 32"><defs><style>.cls-1{fill:none;}</style></defs><path d="M5.35,1.32H9.14V15.48h.13c.78-1.14,1.57-2.18,2.31-3.14l9-11h4.7L14.63,13.78l11.46,16.9H21.6L11.93,16.26,9.14,19.49V30.68H5.35Z"/><rect class="cls-1" x="10.48" y="-5.62" width="7.81" height="15" transform="translate(-0.01 0.05) rotate(-0.21)"/><rect x="16.27" y="1.33" width="1.45" height="1.5" transform="translate(-0.01 0.06) rotate(-0.21)"/><rect x="13.67" y="1.34" width="1.45" height="1.5" transform="translate(-0.01 0.05) rotate(-0.21)"/><rect x="11.08" y="1.35" width="1.45" height="1.5" transform="translate(-0.01 0.04) rotate(-0.21)"/><rect class="cls-1" x="6.89" y="25.57" width="15" height="8.24" transform="translate(-15.38 43.93) rotate(-89.7)"/><rect x="16.39" y="29.16" width="1.5" height="1.53" transform="translate(-12.88 46.91) rotate(-89.7)"/><rect x="13.64" y="29.15" width="1.5" height="1.53" transform="translate(-15.6 44.15) rotate(-89.7)"/><rect x="10.91" y="29.14" width="1.5" height="1.53" transform="translate(-18.3 41.4) rotate(-89.7)"/></svg>